<svg xmlns="http://www.w3.org/2000/svg" width="125.421" height="121.107"
    viewBox="0 0 125.421 121.107">
    <path id="comment"
        d="M105.606,17.892A65.909,65.909,0,0,0,64,3.447c-34.635,0-62.71,25.689-62.71,57.377,0,.154,0,.312,0,.467,0,.073,0,.143,0,.216A48.856,48.856,0,0,0,3.653,76.48c.031.1.066.212.1.32A55.9,55.9,0,0,0,16.328,98.1,26.083,26.083,0,0,1,9.4,122.247a1.35,1.35,0,0,0,.952,2.306A40.288,40.288,0,0,0,38.08,113.343l.185-.177A67.409,67.409,0,0,0,64,118.206c19.1,0,36.208-7.816,47.71-20.144a54.363,54.363,0,0,0,15-37.238C126.71,43.742,118.551,28.4,105.606,17.892Z"
        transform="translate(-1.29 -3.446)" fill="#2d3e50" />
</svg>
