<svg xmlns="http://www.w3.org/2000/svg" width="595.868" height="186.469" viewBox="0 0 595.868 186.469">
  <g id="surface1" transform="translate(-78.48 -16.743)">
    <g id="Group_45" data-name="Group 45">
      <g id="Group_44" data-name="Group 44" transform="translate(72.339 200.899)">
        <path id="Path_14" data-name="Path 14" d="M79.969-33.5q9.152,0,21.906-4.516V-4.984A88.75,88.75,0,0,1,84.422.625,98.243,98.243,0,0,1,65.016,2.313q-22.828,0-32.922-11.172Q22.016-20.045,22.016-43.234V-97.344H6.141v-18.437l20.172-14.25,11.7-27.578H67.688V-131.3h32.2v33.953h-32.2v51.109Q67.688-33.5,79.969-33.5Zm0,0"/>
      </g>
    </g>
    <g id="Group_47" data-name="Group 47">
      <g id="Group_46" data-name="Group 46" transform="translate(181.497 200.899)">
        <path id="Path_15" data-name="Path 15" d="M101.281,0,92.594-17.391h-.922Q82.514-6.029,73.016-1.859T48.438,2.313q-18.533,0-29.2-11.125T8.578-40.094q0-20.982,14.594-31.234T65.484-82.859l21.891-.7v-1.844q0-16.23-15.984-16.235-14.379,0-36.5,9.735L21.781-121.8q22.951-11.824,57.953-11.828,25.266,0,39.11,12.516t13.844,35V0ZM67.688-29.672a20.427,20.427,0,0,0,14.063-5.2,17.309,17.309,0,0,0,5.859-13.562v-10.2l-10.422.469q-22.377.815-22.375,16.453Q54.813-29.672,67.688-29.672Zm0,0"/>
      </g>
    </g>
    <g id="Group_49" data-name="Group 49">
      <g id="Group_48" data-name="Group 48" transform="translate(329.358 200.899)">
        <path id="Path_16" data-name="Path 16" d="M61.188,0H15.875V-131.3H61.188ZM14.719-163.984q0-10.2,5.672-15.188T38.7-184.156q12.639,0,18.422,5.109t5.8,15.063q0,19.939-24.219,19.937Q14.715-144.047,14.719-163.984Zm0,0"/>
      </g>
    </g>
    <g id="Group_51" data-name="Group 51">
      <g id="Group_50" data-name="Group 50" transform="translate(406.533 200.899)">
        <path id="Path_17" data-name="Path 17" d="M60.953,0H15.641V-180.328H60.953Zm0,0"/>
      </g>
    </g>
    <g id="Group_53" data-name="Group 53">
      <g id="Group_52" data-name="Group 52" transform="translate(483.245 200.899)">
        <path id="Path_18" data-name="Path 18" d="M60.953,0H15.641V-180.328H60.953Zm0,0"/>
      </g>
    </g>
    <g id="Group_55" data-name="Group 55">
      <g id="Group_54" data-name="Group 54" transform="translate(559.957 200.899)">
        <path id="Path_19" data-name="Path 19" d="M114.391,0H5.672V-25.844L60.031-96.656H8.813V-131.3H111.828v28.031L59.8-34.656h54.594Zm0,0"/>
      </g>
    </g>
  </g>
</svg>
